<svg width="32" height="32" viewBox="0 0 32 32" fill="none" xmlns="http://www.w3.org/2000/svg">
<rect width="32" height="32" rx="6" fill="#E40E00"/>
<path d="M25 9.98C21.67 9.65 18.32 9.48 14.98 9.48C13 9.48 11.02 9.58 9.04 9.78L7 9.98M12.5 8.97L12.72 7.66C12.88 6.71 13 6 14.69 6H17.31C19 6 19.13 6.75 19.28 7.67L19.5 8.97M22.85 13.14L22.2 23.21C22.09 24.78 22 26 19.21 26H12.79C10 26 9.91 24.78 9.8 23.21L9.15 13.14M14.33 20.5H17.66M13.5 16.5H18.5" stroke="white" stroke-width="1.5" stroke-linecap="round" stroke-linejoin="round"/>
</svg>
