<svg width="171" height="63" viewBox="0 0 171 63" fill="none" xmlns="http://www.w3.org/2000/svg">
<path d="M65.3662 46.4022L54.8742 28.1287C54.3906 27.2865 54.9986 26.2363 55.9697 26.2363H66.2471C66.9448 26.2363 67.5104 26.8019 67.5104 27.4996V45.8304C67.5104 46.1077 67.4101 46.3755 67.2281 46.5846C66.7097 47.1799 65.7592 47.0868 65.3662 46.4022Z" fill="#1089C0"/>
<path d="M21.4897 6.1337L1.08479 47.5944C1.03335 47.6989 0.989701 47.8101 0.957006 47.9219C-1.23861 55.4308 1.48288 59.1092 4.45548 60.1639C11.208 62.56 21.5993 57.9705 26.1735 55.2477C32.8171 50.3468 37.7181 51.6537 41.0943 53.1784C44.5059 55.2719 45.238 54.9906 45.1788 54.4684C45.1632 54.3306 45.0853 54.2094 45.0084 54.0941L34.828 38.8235C34.7222 38.6648 34.5985 38.5153 34.4385 38.4115C32.9094 37.42 30.6612 38.8551 29.5563 39.3385L23.2957 42.2461C21.564 43.0504 19.7419 41.3194 20.4562 39.5488L24.9159 28.4945C24.9556 28.3961 25.004 28.298 25.0593 28.2075C27.9268 23.5102 31.4635 25.1641 33.5123 28.3468L55.1031 60.3187C55.5315 60.9531 56.276 61.322 57.0274 61.1758C63.0494 60.0042 63.5521 54.5108 63.2368 49.7268C63.2165 49.4177 63.1239 49.118 62.971 48.8485L38.5894 5.91111C32.6755 -3.08834 25.012 1.92917 21.7574 5.72364C21.65 5.84874 21.5625 5.98582 21.4897 6.1337Z" fill="#1DACD9"/>
<path d="M63.3484 49.5991L38.5913 5.96265L36.0528 18.9268L34.0659 28.8568L55.391 60.9384C62.3537 62.132 64.4031 53.5105 63.3484 49.5991Z" fill="#FFA110"/>
<path d="M63.3484 49.5992L49.6219 25.329L47.2346 35.4747L45.0463 45.2226L55.391 60.9386C62.3538 62.1322 64.4031 53.5106 63.3484 49.5992Z" fill="#1089C0"/>
<path d="M23.075 42.3726C9.28325 48.8547 5.12639 42.3726 5.95384 38.2351L12.8497 24.8572L24.0404 30.7876L20.8683 39.2005C19.765 42.0968 21.8337 42.3726 23.075 42.3726Z" fill="url(#paint0_linear_1812_10824)"/>
<path d="M6.93949 61.9569C-5.61094 57.6814 1.83656 47.0618 6.24992 37.9593C7.13255 46.3447 14.7548 44.9472 18.6624 43.3381L32.3162 37.9594C33.8609 37.4077 34.8906 38.7409 35.2124 39.4765L45.0045 54.0956C45.4458 55.3093 44.4528 54.9691 43.9012 54.6473C37.6122 50.234 31.4427 52.3487 29.1441 53.9577C18.2211 61.6811 9.51395 62.6464 6.93949 61.9569Z" fill="#1089C0"/>
<path d="M40.3148 47.1998C39.2115 47.1998 34.4763 50.7857 32.3156 52.3027C38.7977 51.0615 42.1077 53.8198 43.4869 54.5094C44.866 55.199 45.4177 54.9232 45.1419 54.2336L40.3148 47.1998Z" fill="#1089C0"/>
<path d="M62.2709 56.5977C57.7402 45.4452 49.1506 44.7317 45.3751 45.8208L55.954 61.172C60.5719 60.9977 62.0894 58.0499 62.2709 56.5977Z" fill="url(#paint1_linear_1812_10824)"/>
<path d="M81.5103 35.6694L91.6367 14.2472C92.7619 12.1802 95.6873 9.28632 98.3877 14.2472L108.514 35.6694H101.763H101.201L100.638 33.4147H95.2935H93.4133L95.0122 29.5812H98.3877L95.0122 21.9142L89.949 33.4147L88.8239 35.6694H81.5103Z" fill="#FFA110"/>
<path d="M98.2878 14.129L95.142 21.9935L100.909 35.6253H108.774L98.2878 14.129Z" fill="#FFA110"/>
<path d="M91.6367 14.2472L81.5103 35.6694H88.8238L89.949 33.4147L95.0122 21.9142L98.3877 14.2472C95.6873 9.28632 92.7619 12.1802 91.6367 14.2472Z" fill="#1DACD9"/>
<path d="M93.4141 33.3597L95.013 29.6289H98.2108L99.9874 33.3597H93.4141Z" fill="#1089C0"/>
<path fill-rule="evenodd" clip-rule="evenodd" d="M145.168 13.0228V32.2132C145.168 33.1539 146.514 35.0353 151.899 35.0353H158.631C161.996 34.4709 169.064 31.423 170.411 23.7469C170.972 19.6078 169.401 11.2167 158.631 10.7651H151.899C150.03 10.7651 146.066 11.2167 145.168 13.0228ZM151.951 16.4362V28.9282H158.018C159.981 28.6902 163.979 27.0365 164.264 22.3252C164.205 20.3622 162.872 16.4362 158.018 16.4362H151.951Z" fill="#1089C0"/>
<path d="M145.168 35.0354V10.7652C146.652 10.7651 150.051 10.7652 151.9 10.7652V16.4094V28.8267V35.0354H145.168Z" fill="#1DACD9"/>
<path d="M113.189 12.8731C113.755 11.3761 115.678 9.16795 118.845 12.3117L126.764 20.1711L135.813 11.1889C137.133 10.4404 139.999 9.61712 140.904 12.3117V35.3286H134.682V21.8555L127.329 29.1535L119.411 21.8555V35.3286H113.189V15.6802V12.8731Z" fill="#1089C0"/>
<path d="M118.845 12.3117C115.678 9.16795 113.755 11.3761 113.189 12.8731V15.6802L119.411 21.8555L127.329 29.1535L134.682 21.8555V35.3286H140.904V12.3117C139.999 9.61712 137.133 10.4404 135.813 11.1889L126.764 20.1711L118.845 12.3117Z" fill="#1DACD9"/>
<path d="M134.682 35.3281H140.904V15.0356L134.682 21.8549V35.3281Z" fill="#1089C0"/>
<path d="M81.5103 52.3891L85.9375 43.0236C86.4294 42.1199 87.7083 40.8547 88.8889 43.0236L93.3161 52.3891H90.3646H90.1187L89.8727 51.4034H87.5362H86.7142L87.4132 49.7274H88.8889L87.4132 46.3755L85.1996 51.4034L84.7077 52.3891H81.5103Z" fill="#1DACD9"/>
<path d="M85.9375 43.0236L81.5103 52.3891H84.7077L85.1996 51.4034L87.4132 46.3755L88.8889 43.0236C87.7083 40.8547 86.4294 42.1199 85.9375 43.0236Z" fill="url(#paint2_linear_1812_10824)"/>
<path d="M86.714 51.3798L87.413 49.7488H88.8111L89.5878 51.3798H86.714Z" fill="#1089C0"/>
<path d="M105.345 43.5738L103.423 45.048C102.241 44.645 101.294 44.4979 100.54 44.5323C97.9854 44.6487 97.6504 46.8506 97.8978 48.2418C98.6666 50.7969 101.902 50.1254 103.423 49.4703L105.345 50.9444C103.039 52.7133 100.54 52.6642 99.5793 52.4185C94.9667 51.4358 94.9346 47.4229 95.4952 45.5393C95.8787 44.8472 96.2814 44.2657 96.6966 43.7813C99.8189 40.1382 103.649 41.9836 105.345 43.5738Z" fill="#1089C0"/>
<path d="M105.346 43.5738L103.424 45.048C102.242 44.645 101.295 44.4979 100.541 44.5323C99.9646 44.3551 97.7383 43.9578 96.6973 43.7813C99.8195 40.1382 103.649 41.9836 105.346 43.5738Z" fill="#1DACD9"/>
<path d="M107.275 52.3888L111.702 43.0233C112.194 42.1197 113.473 40.8545 114.654 43.0233L119.081 52.3888H116.129H115.884L115.638 51.4031H113.301H112.479L113.178 49.7272H114.654L113.178 46.3752L110.964 51.4031L110.473 52.3888H107.275Z" fill="#1089C0"/>
<path d="M111.702 43.0233L107.275 52.3888H110.473L110.964 51.4031L113.178 46.3752L114.654 43.0233C113.473 40.8545 112.194 42.1197 111.702 43.0233Z" fill="#1DACD9"/>
<path fill-rule="evenodd" clip-rule="evenodd" d="M120.898 42.7909V51.2274C120.898 51.6409 121.49 52.4681 123.857 52.4681H126.817C128.296 52.2199 131.404 50.88 131.995 47.5054C132.242 45.6858 131.552 41.9968 126.817 41.7983H123.857C123.035 41.7983 121.293 41.9968 120.898 42.7909ZM123.88 44.2914V49.7832H126.547C127.41 49.6786 129.168 48.9516 129.293 46.8804C129.267 46.0174 128.681 44.2914 126.547 44.2914H123.88Z" fill="#1089C0"/>
<path d="M120.899 52.4681V41.7984L123.858 41.7984V44.2797V49.7386V52.4681H120.899Z" fill="#1DACD9"/>
<path d="M133.972 50.8673V43.6279C133.972 41.8305 135.64 41.714 136.474 41.8804H142.981V44.1271H136.474V45.8746H142.981V48.1213H136.474V49.8687H142.981V52.3651H136.474C134.472 52.5648 133.972 51.4498 133.972 50.8673Z" fill="#1089C0"/>
<path d="M133.972 50.8673V43.6279C133.972 41.8305 135.64 41.714 136.474 41.8804V44.1271V45.8746V48.1213V49.8687V52.3651C134.472 52.5648 133.972 51.4498 133.972 50.8673Z" fill="#1DACD9"/>
<path d="M144.911 42.7259C145.159 42.0714 145.999 41.106 147.384 42.4804L150.846 45.9165L154.802 41.9895C155.379 41.6623 156.632 41.3024 157.028 42.4804V52.5431H154.308V46.6529L151.093 49.8435L147.631 46.6529V52.5431H144.911V43.9531V42.7259Z" fill="#1089C0"/>
<path d="M147.384 42.4804C145.999 41.106 145.159 42.0714 144.911 42.7259V43.9531L147.631 46.6529L151.093 49.8435L154.308 46.6529V52.5431H157.028V42.4804C156.632 41.3024 155.379 41.6623 154.802 41.9895L150.846 45.9165L147.384 42.4804Z" fill="#1DACD9"/>
<path d="M154.308 52.5426H157.028V43.671L154.308 46.6523V52.5426Z" fill="#1089C0"/>
<path d="M163.706 52.234V48.8166L163.367 48.3284L158.958 41.9817H162.457L164.956 46.3756L167.704 41.9817H168.954C170.153 41.9817 170.453 42.6326 170.453 42.9581L166.455 48.8166V52.234H163.706Z" fill="#1DACD9"/>
<path d="M163.705 52.234V48.8166L163.366 48.3284C163.729 47.8402 164.555 46.7661 164.954 46.3756L166.329 44.1786L167.703 41.9817H168.953C170.152 41.9817 170.452 42.6326 170.452 42.9581L166.454 48.8166V52.234H163.705Z" fill="#1089C0"/>
<defs>
<linearGradient id="paint0_linear_1812_10824" x1="16.7113" y1="29.4084" x2="8.2984" y2="45.6826" gradientUnits="userSpaceOnUse">
<stop stop-color="#1DACD9"/>
<stop offset="1" stop-color="#106E98"/>
</linearGradient>
<linearGradient id="paint1_linear_1812_10824" x1="57.6497" y1="45.5449" x2="53.7758" y2="61.1719" gradientUnits="userSpaceOnUse">
<stop stop-color="#0C73A3"/>
<stop offset="1" stop-color="#1DACD9"/>
</linearGradient>
<linearGradient id="paint2_linear_1812_10824" x1="88.0345" y1="41.826" x2="82.4423" y2="54.8745" gradientUnits="userSpaceOnUse">
<stop stop-color="#FE8F1D"/>
<stop offset="1" stop-color="#FFB500"/>
</linearGradient>
</defs>
</svg>
