<svg width="52" height="52" viewBox="0 0 52 52" fill="none" xmlns="http://www.w3.org/2000/svg">
<path d="M38.3667 40C35.0222 40 31.7623 39.2544 28.5869 37.7631C25.4104 36.2729 22.5975 34.3025 20.148 31.852C17.6975 29.4025 15.7271 26.5896 14.2369 23.4131C12.7456 20.2377 12 16.9778 12 13.6333C12 13.1667 12.1556 12.7778 12.4667 12.4667C12.7778 12.1556 13.1667 12 13.6333 12H19.9333C20.2963 12 20.6204 12.1167 20.9056 12.35C21.1907 12.5833 21.3593 12.8815 21.4111 13.2444L22.4222 18.6889C22.4741 19.0519 22.4679 19.3821 22.4036 19.6798C22.3382 19.9784 22.1889 20.2444 21.9556 20.4778L18.2222 24.2889C19.3111 26.1556 20.6722 27.9056 22.3056 29.5389C23.9389 31.1722 25.7407 32.5852 27.7111 33.7778L31.3667 30.1222C31.6 29.8889 31.9049 29.7136 32.2813 29.5964C32.6567 29.4803 33.0259 29.4481 33.3889 29.5L38.7556 30.5889C39.1185 30.6667 39.4167 30.8414 39.65 31.1131C39.8833 31.3859 40 31.7037 40 32.0667V38.3667C40 38.8333 39.8444 39.2222 39.5333 39.5333C39.2222 39.8444 38.8333 40 38.3667 40Z" fill="#1089C0"/>
<rect x="0.5" y="0.5" width="51" height="51" rx="25.5" stroke="#1DACD9"/>
</svg>
