<svg width="52" height="52" viewBox="0 0 52 52" fill="none" xmlns="http://www.w3.org/2000/svg">
<path d="M13.2 38.7999C12.32 38.7999 11.5669 38.4869 10.9408 37.8607C10.3136 37.2335 10 36.4799 10 35.5999V16.4C10 15.52 10.3136 14.7669 10.9408 14.1408C11.5669 13.5136 12.32 13.2 13.2 13.2H38.8C39.68 13.2 40.4336 13.5136 41.0608 14.1408C41.6869 14.7669 42 15.52 42 16.4V35.5999C42 36.4799 41.6869 37.2335 41.0608 37.8607C40.4336 38.4869 39.68 38.7999 38.8 38.7999H13.2ZM26 27.3199C26.1333 27.3199 26.2731 27.2997 26.4192 27.2591C26.5664 27.2197 26.7067 27.1599 26.84 27.0799L38.16 19.9999C38.3733 19.8666 38.5333 19.7002 38.64 19.5008C38.7467 19.3002 38.8 19.08 38.8 18.84C38.8 18.3066 38.5733 17.9066 38.12 17.64C37.6667 17.3733 37.2 17.3866 36.72 17.68L26 24.3999L15.28 17.68C14.8 17.3866 14.3333 17.3797 13.88 17.6592C13.4267 17.9397 13.2 18.3333 13.2 18.84C13.2 19.1066 13.2533 19.3397 13.36 19.5391C13.4667 19.7397 13.6267 19.8933 13.84 19.9999L25.16 27.0799C25.2933 27.1599 25.4336 27.2197 25.5808 27.2591C25.7269 27.2997 25.8667 27.3199 26 27.3199V27.3199Z" fill="#1089C0"/>
<rect x="0.5" y="0.5" width="51" height="51" rx="25.5" stroke="#1DACD9"/>
</svg>
