<svg width="52" height="52" viewBox="0 0 52 52" fill="none" xmlns="http://www.w3.org/2000/svg">
<path d="M26 26C26.8995 26 27.6698 25.6795 28.3108 25.0384C28.9508 24.3984 29.2708 23.6287 29.2708 22.7292C29.2708 21.8297 28.9508 21.0595 28.3108 20.4184C27.6698 19.7784 26.8995 19.4584 26 19.4584C25.1005 19.4584 24.3308 19.7784 23.6908 20.4184C23.0497 21.0595 22.7292 21.8297 22.7292 22.7292C22.7292 23.6287 23.0497 24.3984 23.6908 25.0384C24.3308 25.6795 25.1005 26 26 26ZM26 42.3542C21.6116 38.62 18.3343 35.1513 16.1679 31.9481C14.0004 28.7459 12.9167 25.782 12.9167 23.0563C12.9167 18.9678 14.2321 15.7105 16.8629 13.2847C19.4927 10.8588 22.5384 9.64587 26 9.64587C29.4616 9.64587 32.5073 10.8588 35.1371 13.2847C37.7679 15.7105 39.0833 18.9678 39.0833 23.0563C39.0833 25.782 38.0001 28.7459 35.8337 31.9481C33.6663 35.1513 30.3884 38.62 26 42.3542Z" fill="#1089C0"/>
<rect x="0.5" y="0.5" width="51" height="51" rx="25.5" stroke="#1DACD9"/>
</svg>
