<svg width="28" height="23" viewBox="0 0 28 23" fill="none" xmlns="http://www.w3.org/2000/svg">
<path d="M27.9467 2.99992C26.92 3.46658 25.8133 3.77325 24.6667 3.91992C25.84 3.21325 26.7467 2.09325 27.1733 0.746585C26.0667 1.41325 24.84 1.87992 23.5467 2.14659C22.4933 0.999919 21.0133 0.333252 19.3333 0.333252C16.2 0.333252 13.64 2.89325 13.64 6.05325C13.64 6.50658 13.6933 6.94658 13.7867 7.35992C9.04 7.11992 4.81333 4.83992 2 1.38658C1.50666 2.22658 1.22666 3.21325 1.22666 4.25325C1.22666 6.23992 2.22666 7.99992 3.77333 8.99992C2.82666 8.99992 1.94666 8.73325 1.17333 8.33325C1.17333 8.33325 1.17333 8.33325 1.17333 8.37325C1.17333 11.1466 3.14666 13.4666 5.76 13.9866C5.28 14.1199 4.77333 14.1866 4.25333 14.1866C3.89333 14.1866 3.53333 14.1466 3.18666 14.0799C3.90666 16.3332 6 18.0132 8.52 18.0532C6.57333 19.5999 4.10666 20.5066 1.41333 20.5066C0.959996 20.5066 0.506663 20.4799 0.0533295 20.4266C2.58666 22.0532 5.6 22.9999 8.82666 22.9999C19.3333 22.9999 25.1067 14.2799 25.1067 6.71992C25.1067 6.46658 25.1067 6.22658 25.0933 5.97325C26.2133 5.17325 27.1733 4.15992 27.9467 2.99992Z" fill="#1089C0"/>
</svg>
