<svg width="14" height="15" viewBox="0 0 14 15" fill="none" xmlns="http://www.w3.org/2000/svg">
<path opacity="0.598982" d="M13.9166 3.53289L12.1666 0.616229C12.0611 0.440727 11.8714 0.333313 11.6667 0.333313H2.33334C2.1286 0.333313 1.93886 0.440727 1.83342 0.616229L0.0834238 3.53289C0.0288764 3.62361 3.65816e-06 3.72745 3.65816e-06 3.83331C-0.00225067 5.11903 1.0377 6.16342 2.32342 6.16664H2.32809C2.90427 6.16811 3.46035 5.95495 3.88792 5.56872C4.77106 6.36691 6.1151 6.36691 6.99824 5.56872C7.88183 6.36867 9.2279 6.36867 10.1115 5.56872C10.7955 6.18583 11.7791 6.34164 12.6204 5.96618C13.4617 5.59072 14.0025 4.75457 14 3.83331C14 3.72745 13.9711 3.62361 13.9166 3.53289Z" fill="white"/>
<path d="M11.676 7.03283C11.1337 7.03329 10.5988 6.89094 10.1132 6.61697L10.1045 6.62161C9.27663 7.09018 8.31822 7.16408 7.44216 6.82689C7.29043 6.76898 7.14231 6.69951 6.99882 6.61896L6.99241 6.62227C6.16481 7.09117 5.20639 7.16485 4.33066 6.82689C4.17912 6.76898 4.0312 6.69951 3.88791 6.61896C3.40322 6.89218 2.86924 7.03386 2.32808 7.03283C2.13429 7.03073 1.94096 7.0108 1.75 6.97323V13.6548C1.75 14.0205 2.01117 14.317 2.33333 14.317H5.83333V10.3438H8.16666V14.317H11.6666C11.9888 14.317 12.25 14.0205 12.25 13.6548V6.97059C12.0605 7.00912 11.8685 7.02994 11.676 7.03283Z" fill="white"/>
</svg>
