<svg width="32" height="33" viewBox="0 0 32 33" fill="none" xmlns="http://www.w3.org/2000/svg">
<path opacity="0.4" d="M23.9335 10.7805L23.7468 10.6738L21.8935 9.60712L18.0668 7.39379C16.8935 6.71379 15.1068 6.71379 13.9335 7.39379L10.1068 9.60712L8.25346 10.6871L8.01346 10.8205C5.6268 12.4205 5.4668 12.7138 5.4668 15.2871V21.4338C5.4668 24.0071 5.6268 24.3005 8.0668 25.9405L13.9335 29.3271C14.5201 29.6738 15.2535 29.8338 16.0001 29.8338C16.7335 29.8338 17.4801 29.6738 18.0668 29.3271L23.9868 25.9005C26.3735 24.3005 26.5335 24.0071 26.5335 21.4338V15.2871C26.5335 12.7138 26.3735 12.4205 23.9335 10.7805Z" fill="white"/>
<path d="M8.25342 10.687L10.1068 9.60699L13.7601 7.50033L13.9334 7.39366C15.1068 6.71366 16.8934 6.71366 18.0668 7.39366L18.2401 7.50033L21.8934 9.60699L23.7467 10.6737V7.82033C23.7467 4.82033 22.0934 3.16699 19.0934 3.16699H12.8934C9.89342 3.16699 8.25342 4.82033 8.25342 7.82033V10.687Z" fill="white"/>
<path d="M19.7867 18.287L18.96 19.3004C18.8267 19.447 18.7333 19.7404 18.7467 19.9404L18.8267 21.247C18.88 22.047 18.3067 22.4604 17.56 22.167L16.3467 21.687C16.16 21.6204 15.84 21.6204 15.6533 21.687L14.44 22.167C13.6933 22.4604 13.12 22.047 13.1733 21.247L13.2533 19.9404C13.2667 19.7404 13.1733 19.447 13.04 19.3004L12.2133 18.287C11.6933 17.6737 11.92 16.9937 12.6933 16.7937L13.96 16.4737C14.16 16.4204 14.4 16.2337 14.5067 16.0604L15.2133 14.967C15.6533 14.287 16.3467 14.287 16.7867 14.967L17.4933 16.0604C17.6 16.2337 17.84 16.4204 18.04 16.4737L19.3067 16.7937C20.08 16.9937 20.3067 17.6737 19.7867 18.287Z" fill="white"/>
</svg>
