<svg width="32" height="26" viewBox="0 0 32 26" fill="none" xmlns="http://www.w3.org/2000/svg">
<path d="M14.0522 0.500013C15.5014 0.500013 16.8529 1.5438 17.3408 3.21683C17.5199 3.91616 17.5927 4.61698 17.6626 5.29246L17.7282 5.90679C17.9787 7.95707 17.9787 18.0295 17.7282 20.0947L17.6626 20.7314C17.6 21.3741 17.5359 22.0391 17.351 22.7489C16.8631 24.4174 15.5625 25.5 14.0857 25.5C14.0391 25.5 13.9925 25.5 13.9401 25.4985C13.1245 25.4985 12.2376 24.9975 11.7351 24.5606L6.83732 20.4764H4.32214C2.38078 20.4764 0.959351 19.0703 0.701571 16.8948C0.404469 14.7193 0.462724 10.987 0.701571 9.0098C0.982654 6.95057 2.47108 5.52358 4.32214 5.52358H6.83732L11.6419 1.49907C12.2216 0.995075 13.244 0.497044 14.0522 0.500013ZM25.9029 0.807046C26.4825 0.3955 27.2791 0.546102 27.6767 1.13509C29.8555 4.34247 31.0555 8.55784 31.0555 12.9999C31.0555 17.4449 29.8555 21.6587 27.6767 24.8661C27.4393 25.2165 27.0476 25.4268 26.6296 25.4268C26.3704 25.4268 26.1199 25.3463 25.9043 25.1942C25.3276 24.7811 25.1849 23.9685 25.5839 23.378C27.4685 20.6015 28.5069 16.9155 28.5069 12.9999C28.5069 9.08569 27.4685 5.39967 25.5839 2.62322C25.1849 2.03423 25.3276 1.22008 25.9029 0.807046ZM21.5116 5.02555C22.0927 4.61549 22.8864 4.76311 23.2869 5.35359C24.6938 7.42624 25.47 10.1415 25.47 13C25.47 15.8585 24.6938 18.5738 23.2869 20.6464C23.048 20.9968 22.6577 21.2071 22.2398 21.2071C21.9805 21.2071 21.7286 21.1266 21.513 20.9745C20.9363 20.5614 20.7936 19.7473 21.1941 19.1583C22.3082 17.5166 22.9213 15.3291 22.9213 13C22.9213 10.6694 22.3082 8.48343 21.1941 6.84172C20.7936 6.25273 20.9363 5.43858 21.5116 5.02555Z" fill="#EA5455"/>
</svg>
