<svg width="32" height="41" viewBox="0 0 32 41" fill="none" xmlns="http://www.w3.org/2000/svg">
<path fill-rule="evenodd" clip-rule="evenodd" d="M19.9873 0.302734H4.70644C2.59768 0.302734 0.88623 2.08778 0.88623 4.28721V36.163C0.88623 38.3625 2.59768 40.1475 4.70644 40.1475H27.6277C29.7365 40.1475 31.4479 38.3625 31.4479 36.163V12.2562L19.9873 0.302734ZM10.7331 31.0908C9.9194 31.796 8.68356 32.1287 7.17267 32.1287C6.26537 32.1287 5.62549 32.069 5.18998 32.0092V24.098C5.83178 23.9904 6.66649 23.9327 7.54896 23.9327C9.01592 23.9327 9.96715 24.2076 10.7102 24.7933C11.5124 25.4149 12.0167 26.407 12.0167 27.8255C12.0167 29.3695 11.478 30.4333 10.7331 31.0908ZM16.4436 32.1789C14.1515 32.1789 12.8125 30.3739 12.8125 28.0789C12.8125 25.6663 14.289 23.8633 16.5697 23.8633C18.9401 23.8633 20.2352 25.7141 20.2352 27.9374C20.2333 30.5771 18.6975 32.1789 16.4436 32.1789ZM25.3356 30.6608C25.8609 30.6608 26.4454 30.5393 26.7911 30.3978L27.0547 31.8183C26.7338 31.9856 26.0118 32.1649 25.074 32.1649C22.4055 32.1649 21.0303 30.4337 21.0303 28.1386C21.0303 25.3913 22.9079 23.8633 25.2459 23.8633C26.1513 23.8633 26.837 24.0545 27.1464 24.2219L26.7911 25.6683C26.434 25.5129 25.9431 25.3694 25.3242 25.3694C23.9375 25.3694 22.8602 26.242 22.8602 28.035C22.8602 29.6468 23.777 30.6608 25.3356 30.6608ZM19.9873 14.2483H18.0771V4.28711L27.6277 14.2483H19.9873ZM16.5229 25.3086C15.3444 25.3086 14.6567 26.478 14.6567 28.0439C14.6567 29.6198 15.3654 30.7335 16.5344 30.7335C17.7129 30.7335 18.3891 29.562 18.3891 27.9961C18.3891 26.5498 17.7244 25.3086 16.5229 25.3086ZM6.94296 25.4029C7.09195 25.3671 7.34408 25.3312 7.73183 25.3312C9.23317 25.3312 10.171 26.2157 10.1596 27.8892C10.1596 29.8137 9.13003 30.7202 7.54846 30.7082C7.33262 30.7082 7.09195 30.7082 6.94296 30.6724V25.4029Z" fill="#EA5455"/>
</svg>
