<svg width="42" height="46" viewBox="0 0 42 46" fill="none" xmlns="http://www.w3.org/2000/svg">
<path d="M0 8C0 3.58172 3.58172 0 8 0H41.5V46H8C3.58172 46 0 42.4183 0 38V8Z" fill="#FFF5EC"/>
<path d="M22.6287 8C23.0149 8 23.3119 8.315 23.3119 8.69V13.52C23.3119 16.265 25.5545 18.515 28.2723 18.53C29.401 18.53 30.2921 18.545 30.9752 18.545L31.2283 18.5439C31.6848 18.5404 32.2995 18.53 32.8317 18.53C33.203 18.53 33.5 18.83 33.5 19.205V31.265C33.5 34.985 30.5149 38 26.8317 38H15.0099C11.1485 38 8 34.835 8 30.935V14.765C8 11.045 11 8 14.698 8H22.6287ZM24.2178 27.35H16.1386C15.5297 27.35 15.0248 27.845 15.0248 28.46C15.0248 29.075 15.5297 29.585 16.1386 29.585H24.2178C24.8267 29.585 25.3317 29.075 25.3317 28.46C25.3317 27.845 24.8267 27.35 24.2178 27.35ZM21.1584 19.85H16.1386C15.5297 19.85 15.0248 20.36 15.0248 20.975C15.0248 21.59 15.5297 22.085 16.1386 22.085H21.1584C21.7673 22.085 22.2723 21.59 22.2723 20.975C22.2723 20.36 21.7673 19.85 21.1584 19.85ZM25.476 9.359C25.476 8.7125 26.2528 8.3915 26.6968 8.858C28.3023 10.544 31.1077 13.4915 32.676 15.1385C33.1097 15.593 32.7919 16.3475 32.1666 16.349C30.9458 16.3535 29.5067 16.349 28.4716 16.3385C26.829 16.3385 25.476 14.972 25.476 13.313V9.359Z" fill="#FF9F43"/>
</svg>
