<svg width="40" height="43" viewBox="0 0 40 43" fill="none" xmlns="http://www.w3.org/2000/svg">
<path fill-rule="evenodd" clip-rule="evenodd" d="M19.1809 9.10331H33.3324C36.1627 9.10331 38.327 11.3811 38.327 14.3597V33.6331C38.327 36.6117 36.1627 38.8895 33.3324 38.8895H6.69434C3.86405 38.8895 1.69971 36.6117 1.69971 33.6331V9.10331C1.69971 6.12469 3.86405 3.84692 6.69434 3.84692H15.0187C15.5182 3.84692 16.0177 4.19735 16.3506 4.54777L19.1809 9.10331ZM33.3326 35.3852C34.3315 35.3852 34.9974 34.6843 34.9974 33.633V14.3596C34.9974 13.3084 34.3315 12.6075 33.3326 12.6075H18.3486C17.8492 12.6075 17.3497 12.2571 17.0167 11.9066L14.1865 7.35112H6.6945C5.69557 7.35112 5.02962 8.05197 5.02962 9.10325V33.633C5.02962 34.6843 5.69557 35.3852 6.6945 35.3852H33.3326Z" fill="black"/>
<mask id="mask0_138_9910" style="mask-type:alpha" maskUnits="userSpaceOnUse" x="1" y="3" width="38" height="36">
<path fill-rule="evenodd" clip-rule="evenodd" d="M19.1809 9.10331H33.3324C36.1627 9.10331 38.327 11.3811 38.327 14.3597V33.6331C38.327 36.6117 36.1627 38.8895 33.3324 38.8895H6.69434C3.86405 38.8895 1.69971 36.6117 1.69971 33.6331V9.10331C1.69971 6.12469 3.86405 3.84692 6.69434 3.84692H15.0187C15.5182 3.84692 16.0177 4.19735 16.3506 4.54777L19.1809 9.10331ZM33.3326 35.3852C34.3315 35.3852 34.9974 34.6843 34.9974 33.633V14.3596C34.9974 13.3084 34.3315 12.6075 33.3326 12.6075H18.3486C17.8492 12.6075 17.3497 12.2571 17.0167 11.9066L14.1865 7.35112H6.6945C5.69557 7.35112 5.02962 8.05197 5.02962 9.10325V33.633C5.02962 34.6843 5.69557 35.3852 6.6945 35.3852H33.3326Z" fill="white"/>
</mask>
<g mask="url(#mask0_138_9910)">
<rect x="0.034668" y="0.342773" width="39.9571" height="42.0511" fill="#BABFC7"/>
</g>
</svg>
