<svg width="31" height="41" viewBox="0 0 31 41" fill="none" xmlns="http://www.w3.org/2000/svg">
<path fill-rule="evenodd" clip-rule="evenodd" d="M3.92861 0.537109H19.2094L30.6701 12.4905V36.3974C30.6701 38.5968 28.9586 40.3819 26.8499 40.3819H3.92861C1.81985 40.3819 0.108398 38.5968 0.108398 36.3974V4.52159C0.108398 2.32215 1.81985 0.537109 3.92861 0.537109ZM7.36885 32.4138C9.06312 32.4138 10.1156 31.6129 10.1156 29.3179H10.1175V24.2277H8.37739V29.2939C8.37739 30.5491 7.92087 30.8957 7.18739 30.8957C6.84357 30.8957 6.53414 30.8359 6.29155 30.7523L6.09863 32.2205C6.44054 32.3421 6.96773 32.4138 7.36885 32.4138ZM16.4077 28.5897C15.8099 29.1734 14.9312 29.4384 13.8997 29.4384C13.6705 29.4384 13.4642 29.4245 13.3038 29.4006V32.2793H11.5732V24.3343C12.1138 24.2387 12.8702 24.1689 13.9341 24.1689C15.0095 24.1689 15.7774 24.3821 16.2912 24.8124C16.7859 25.2189 17.1183 25.8882 17.1183 26.6772C17.1183 27.4661 16.8642 28.1355 16.4077 28.5897ZM22.1032 32.3647C23.1232 32.3647 24.1451 32.1018 24.6799 31.9105V27.667H21.8071V29.0875H22.999V30.7729C22.8596 30.8466 22.5406 30.8945 22.1376 30.8945C20.7088 30.8945 19.7098 29.9143 19.7098 28.2547C19.7098 26.5095 20.812 25.6489 22.2656 25.6489C23.1137 25.6489 23.6389 25.8043 24.063 25.9955L24.4278 24.5392C24.0515 24.35 23.2817 24.1448 22.2866 24.1448C19.7538 24.1448 17.8895 25.6728 17.8761 28.3504C17.8666 29.5338 18.2563 30.5837 18.9649 31.277C19.6755 31.9942 20.6955 32.3647 22.1032 32.3647ZM19.2099 14.4827H17.2998V4.52148L26.8503 14.4827H19.2099ZM13.3032 25.6147C13.4274 25.5788 13.6681 25.543 14.0233 25.543C14.8962 25.543 15.3871 25.9833 15.3871 26.7244C15.3871 27.5472 14.8141 28.0373 13.8896 28.0373C13.6356 28.0373 13.4503 28.0273 13.3032 27.9914V25.6147Z" fill="#7367F0"/>
</svg>
