<svg width="31" height="41" viewBox="0 0 31 41" fill="none" xmlns="http://www.w3.org/2000/svg">
<path fill-rule="evenodd" clip-rule="evenodd" d="M19.3667 0.347656H4.08583C1.97708 0.347656 0.265625 2.1327 0.265625 4.33213V36.208C0.265625 38.4074 1.97708 40.1924 4.08583 40.1924H27.0071C29.1158 40.1924 30.8273 38.4074 30.8273 36.208V12.3011L19.3667 0.347656ZM7.94834 29.641C7.94834 31.5555 7.06778 32.2229 5.65621 32.2229C5.32003 32.2229 4.88071 32.1651 4.59229 32.0635L4.75655 30.8383C4.9552 30.908 5.21307 30.9578 5.50341 30.9578C6.11273 30.9578 6.49666 30.669 6.49666 29.623V25.3955H7.95025V29.641H7.94834ZM8.91113 31.8047C9.27214 32.0139 9.99989 32.2131 10.7353 32.2131C12.504 32.2131 13.3388 31.2569 13.3368 30.1293C13.3368 29.1809 12.802 28.5634 11.6636 28.1251C10.8289 27.7963 10.466 27.6051 10.466 27.1768C10.466 26.8281 10.7735 26.5293 11.4038 26.5293C12.0342 26.5293 12.4926 26.7185 12.7504 26.848L13.079 25.6228C12.6931 25.4415 12.1602 25.2821 11.4344 25.2821C9.91394 25.2821 8.99518 26.1607 8.99518 27.3082C8.99518 28.2844 9.69237 28.904 10.7658 29.2925C11.5394 29.5814 11.8431 29.8205 11.8431 30.2408C11.8431 30.6771 11.4917 30.968 10.8231 30.968C10.2024 30.968 9.59686 30.7568 9.2072 30.5476L8.91113 31.8047ZM17.0499 32.2231C15.1379 32.2231 14.0205 30.719 14.0205 28.8044C14.0205 26.7883 15.2544 25.2821 17.1569 25.2821C19.1339 25.2821 20.215 26.8281 20.215 28.6829C20.2131 30.8883 18.9333 32.2231 17.0499 32.2231ZM24.967 32.1133H26.4989H26.5009V25.3955H25.16V27.3579C25.16 28.3659 25.1886 29.2724 25.2841 30.1589H25.2574C24.967 29.4019 24.585 28.5632 24.203 27.8579L22.864 25.3955H21.1621V32.1153H22.5011V30.0912C22.5011 28.9935 22.482 28.0452 22.4419 27.1586L22.4724 27.1487C22.7895 27.9356 23.2078 28.8042 23.5899 29.5194L24.967 32.1133ZM19.3671 14.2932H17.457V4.33203L27.0076 14.2932H19.3671ZM15.5601 28.7733C15.5601 27.4684 16.1312 26.4902 17.1187 26.4902C18.1215 26.4902 18.6773 27.5302 18.6773 28.7335C18.6773 30.0404 18.1139 31.0166 17.1263 31.0166C16.1541 31.0166 15.5601 30.0902 15.5601 28.7733Z" fill="#FF9F43"/>
</svg>
