<svg width="32" height="41" viewBox="0 0 32 41" fill="none" xmlns="http://www.w3.org/2000/svg">
<path fill-rule="evenodd" clip-rule="evenodd" d="M19.7075 0.537109H4.42665C2.3179 0.537109 0.606445 2.32215 0.606445 4.52159V36.3974C0.606445 38.5968 2.3179 40.3819 4.42665 40.3819H27.3479C29.4567 40.3819 31.1681 38.5968 31.1681 36.3974V12.4905L19.7075 0.537109ZM12.0632 25.9734H9.95635V32.496H8.20479V25.9734H6.13232V24.4434H12.0632V25.9734ZM17.2681 32.496L16.5709 31.0397C16.2844 30.4778 16.101 30.0595 15.8851 29.5933H15.8603C15.7018 30.0575 15.5069 30.4759 15.2644 31.0397L14.6245 32.496H12.6284L14.8652 28.4219L12.7086 24.4434H14.7143L15.3904 25.9136C15.6216 26.4017 15.7916 26.7962 15.9749 27.2504H15.9998C16.1831 26.7364 16.3321 26.3778 16.5269 25.9136L17.1783 24.4434H19.1705L16.9949 28.374L19.2832 32.496H17.2681ZM25.6423 25.9734H23.5335V32.496H21.7819V25.9734H19.7095V24.4434H25.6403V25.9734H25.6423ZM19.708 14.4827C18.6517 14.4827 17.7979 14.4827 17.7979 14.4827V4.52148L27.3484 14.4827H19.708Z" fill="#4B4B4B"/>
</svg>
