<svg width="41" height="26" viewBox="0 0 41 26" fill="none" xmlns="http://www.w3.org/2000/svg">
<path d="M19.8659 0.5C24.7099 0.5 28.0919 3.28173 28.0919 7.26819V18.7318C28.0919 22.7183 24.7099 25.5 19.8659 25.5H8.28175C3.4377 25.5 0.0556641 22.7183 0.0556641 18.7318V7.26819C0.0556641 3.28173 3.4377 0.5 8.28175 0.5H19.8659ZM35.9716 4.46497C36.8496 4.09272 37.8796 4.13164 38.7177 4.57157C39.5557 5.00981 40.0557 5.77124 40.0557 6.60372V19.3973C40.0557 20.2315 39.5557 20.9912 38.7177 21.4294C38.2596 21.668 37.7476 21.7898 37.2316 21.7898C36.8016 21.7898 36.3716 21.7052 35.9696 21.5343L33.0076 20.289C31.9116 19.8254 31.2316 18.8948 31.2316 17.8609V8.13841C31.2316 7.10288 31.9116 6.17225 33.0076 5.71201L35.9716 4.46497Z" fill="#19BCFE"/>
</svg>
