<svg width="32" height="33" viewBox="0 0 32 33" fill="none" xmlns="http://www.w3.org/2000/svg">
<path opacity="0.4" d="M15.9998 7.56659V28.9399C15.7732 28.9399 15.5332 28.8999 15.3465 28.7933L15.2932 28.7666C12.7332 27.3666 8.2665 25.8999 5.37317 25.5133L4.9865 25.4599C3.7065 25.2999 2.6665 24.0999 2.6665 22.8199V6.71326C2.6665 5.12659 3.95984 3.92659 5.5465 4.05993C8.3465 4.28659 12.5865 5.69993 14.9598 7.17993L15.2932 7.37993C15.4932 7.49993 15.7465 7.56659 15.9998 7.56659Z" fill="white"/>
<path d="M29.3333 6.72703V22.8204C29.3333 24.1004 28.2933 25.3004 27.0133 25.4604L26.5733 25.5137C23.6667 25.9004 19.1867 27.3804 16.6267 28.7937C16.4533 28.9004 16.24 28.9404 16 28.9404V7.56703C16.2533 7.56703 16.5067 7.50036 16.7067 7.38036L16.9333 7.2337C19.3067 5.74036 23.56 4.3137 26.36 4.0737H26.44C28.0267 3.94036 29.3333 5.12703 29.3333 6.72703Z" fill="white"/>
<path d="M10.3335 12.8203H7.3335C6.78683 12.8203 6.3335 12.367 6.3335 11.8203C6.3335 11.2736 6.78683 10.8203 7.3335 10.8203H10.3335C10.8802 10.8203 11.3335 11.2736 11.3335 11.8203C11.3335 12.367 10.8802 12.8203 10.3335 12.8203Z" fill="white"/>
<path d="M11.3335 16.8203H7.3335C6.78683 16.8203 6.3335 16.367 6.3335 15.8203C6.3335 15.2736 6.78683 14.8203 7.3335 14.8203H11.3335C11.8802 14.8203 12.3335 15.2736 12.3335 15.8203C12.3335 16.367 11.8802 16.8203 11.3335 16.8203Z" fill="white"/>
</svg>
