<svg width="32" height="33" viewBox="0 0 32 33" fill="none" xmlns="http://www.w3.org/2000/svg">
<path opacity="0.4" d="M24.5065 17.6201V24.1935C24.5065 25.8868 23.1865 27.7001 21.5998 28.2334L17.3465 29.6468C16.5998 29.9001 15.3865 29.9001 14.6532 29.6468L10.3998 28.2334C8.79983 27.7001 7.49316 25.8868 7.49316 24.1935L7.5065 17.6201L13.3998 21.4601C14.8398 22.4068 17.2132 22.4068 18.6532 21.4601L24.5065 17.6201Z" fill="white"/>
<path d="M26.64 9.11309L18.6534 3.87309C17.2134 2.92642 14.84 2.92642 13.4 3.87309L5.37336 9.11309C2.80003 10.7798 2.80003 14.5531 5.37336 16.2331L7.50669 17.6198L13.4 21.4598C14.84 22.4064 17.2134 22.4064 18.6534 21.4598L24.5067 17.6198L26.3334 16.4198V20.4998C26.3334 21.0464 26.7867 21.4998 27.3334 21.4998C27.88 21.4998 28.3334 21.0464 28.3334 20.4998V13.9398C28.8667 12.2198 28.32 10.2198 26.64 9.11309Z" fill="white"/>
</svg>
