<svg width="20" height="20" viewBox="0 0 20 20" fill="none" xmlns="http://www.w3.org/2000/svg">
<g clip-path="url(#clip0_76_2388)">
<path d="M16.4813 9.16699H3.51836C2.49561 9.16699 1.6665 9.98102 1.6665 10.9852V17.3488C1.6665 18.353 2.49561 19.167 3.51836 19.167H16.4813C17.5041 19.167 18.3332 18.353 18.3332 17.3488V10.9852C18.3332 9.98102 17.5041 9.16699 16.4813 9.16699Z" stroke="#A2A2A8" stroke-width="1.5" stroke-linecap="round" stroke-linejoin="round"/>
<path d="M5 9.16634V5.46264C5 4.23478 5.52678 3.05722 6.46447 2.189C7.40215 1.32077 8.67392 0.833008 10 0.833008C11.3261 0.833008 12.5979 1.32077 13.5355 2.189C14.4732 3.05722 15 4.23478 15 5.46264V9.16634" stroke="#A2A2A8" stroke-width="1.5" stroke-linecap="round" stroke-linejoin="round"/>
</g>
<defs>
<clipPath id="clip0_76_2388">
<rect width="20" height="20" fill="white"/>
</clipPath>
</defs>
</svg>
