<svg width="32" height="32" viewBox="0 0 32 32" fill="none" xmlns="http://www.w3.org/2000/svg">
<path fill-rule="evenodd" clip-rule="evenodd" d="M32 16C32 24.8366 24.8366 32 16 32C7.16344 32 0 24.8366 0 16C0 7.16344 7.16344 0 16 0C24.8366 0 32 7.16344 32 16ZM21.3333 12C21.3333 14.9455 18.9456 17.3333 16 17.3333C13.0545 17.3333 10.6667 14.9455 10.6667 12C10.6667 9.05448 13.0545 6.66667 16 6.66667C18.9456 6.66667 21.3333 9.05448 21.3333 12ZM15.3332 18.6667C10.8954 18.6667 7.07148 20.8973 5.33333 24.1093C7.75356 26.4917 11.3359 28 15.3334 28C19.3308 28 22.9131 26.4919 25.3333 24.1095C23.5952 20.8973 19.7711 18.6667 15.3332 18.6667Z" fill="#F8F8F8"/>
</svg>
