<svg width="40" height="41" viewBox="0 0 40 41" fill="none" xmlns="http://www.w3.org/2000/svg">
<path fill-rule="evenodd" clip-rule="evenodd" d="M19.1809 8.57932H33.3324C36.1627 8.57932 38.327 10.752 38.327 13.5932V31.9775C38.327 34.8187 36.1627 36.9914 33.3324 36.9914H6.69434C3.86405 36.9914 1.69971 34.8187 1.69971 31.9775V8.57932C1.69971 5.73812 3.86405 3.56543 6.69434 3.56543H15.0187C15.5182 3.56543 16.0177 3.89969 16.3506 4.23395L19.1809 8.57932ZM33.3326 33.6484C34.3315 33.6484 34.9975 32.9799 34.9975 31.9771V13.5928C34.9975 12.5901 34.3315 11.9215 33.3326 11.9215H18.3487C17.8492 11.9215 17.3498 11.5873 17.0168 11.253L14.1865 6.90766H6.69456C5.69563 6.90766 5.02968 7.57617 5.02968 8.57895V31.9771C5.02968 32.9799 5.69563 33.6484 6.69456 33.6484H33.3326Z" fill="black"/>
<mask id="mask0_48_1114" style="mask-type:alpha" maskUnits="userSpaceOnUse" x="1" y="3" width="38" height="34">
<path fill-rule="evenodd" clip-rule="evenodd" d="M19.1809 8.57932H33.3324C36.1627 8.57932 38.327 10.752 38.327 13.5932V31.9775C38.327 34.8187 36.1627 36.9914 33.3324 36.9914H6.69434C3.86405 36.9914 1.69971 34.8187 1.69971 31.9775V8.57932C1.69971 5.73812 3.86405 3.56543 6.69434 3.56543H15.0187C15.5182 3.56543 16.0177 3.89969 16.3506 4.23395L19.1809 8.57932ZM33.3326 33.6484C34.3315 33.6484 34.9975 32.9799 34.9975 31.9771V13.5928C34.9975 12.5901 34.3315 11.9215 33.3326 11.9215H18.3487C17.8492 11.9215 17.3498 11.5873 17.0168 11.253L14.1865 6.90766H6.69456C5.69563 6.90766 5.02968 7.57617 5.02968 8.57895V31.9771C5.02968 32.9799 5.69563 33.6484 6.69456 33.6484H33.3326Z" fill="white"/>
</mask>
<g mask="url(#mask0_48_1114)">
<rect x="0.034668" y="0.222656" width="39.9571" height="40.1111" fill="#BABFC7"/>
</g>
</svg>
